<mxfile host="app.diagrams.net" modified="2023-02-21T05:52:30.748Z" agent="5.0 (Windows NT 10.0; Win64; x64) AppleWebKit/537.36 (KHTML, like Gecko) Chrome/110.0.0.0 Safari/537.36" etag="m2EwtmyXTVB-6mF1Dkf1" version="20.8.20" type="github">
  <diagram id="Z87XCZslrCXwQrkr19RX" name="Page-1">
    <mxGraphModel dx="2514" dy="832" grid="1" gridSize="10" guides="1" tooltips="1" connect="1" arrows="1" fold="1" page="1" pageScale="1" pageWidth="827" pageHeight="1169" math="0" shadow="0">
      <root>
        <mxCell id="0" />
        <mxCell id="1" parent="0" />
        <mxCell id="S6yvC7qdEsfKQvKiLP5z-28" value="" style="rounded=0;whiteSpace=wrap;html=1;" parent="1" vertex="1">
          <mxGeometry x="-740" y="60" width="820" height="680" as="geometry" />
        </mxCell>
        <mxCell id="S6yvC7qdEsfKQvKiLP5z-32" value="" style="endArrow=none;dashed=1;html=1;dashPattern=1 3;strokeWidth=2;rounded=0;entryX=0.5;entryY=1;entryDx=0;entryDy=0;startArrow=none;" parent="1" source="S6yvC7qdEsfKQvKiLP5z-33" edge="1">
          <mxGeometry width="50" height="50" relative="1" as="geometry">
            <mxPoint x="-524" y="600" as="sourcePoint" />
            <mxPoint x="-524" y="230" as="targetPoint" />
          </mxGeometry>
        </mxCell>
        <mxCell id="S6yvC7qdEsfKQvKiLP5z-27" value="" style="rounded=0;whiteSpace=wrap;html=1;" parent="1" vertex="1">
          <mxGeometry x="-730" y="70" width="120" height="40" as="geometry" />
        </mxCell>
        <mxCell id="S6yvC7qdEsfKQvKiLP5z-1" value="room.js" style="rounded=0;whiteSpace=wrap;html=1;" parent="1" vertex="1">
          <mxGeometry x="-700" y="200" width="90" height="30" as="geometry" />
        </mxCell>
        <mxCell id="S6yvC7qdEsfKQvKiLP5z-3" value="RoomModule/&lt;br&gt;Livestream.js" style="rounded=0;whiteSpace=wrap;html=1;" parent="1" vertex="1">
          <mxGeometry x="-88.25" y="200" width="90" height="30" as="geometry" />
        </mxCell>
        <mxCell id="S6yvC7qdEsfKQvKiLP5z-5" value="" style="endArrow=none;dashed=1;html=1;dashPattern=1 3;strokeWidth=2;rounded=0;entryX=0.411;entryY=1.067;entryDx=0;entryDy=0;entryPerimeter=0;startArrow=none;" parent="1" target="S6yvC7qdEsfKQvKiLP5z-1" edge="1">
          <mxGeometry width="50" height="50" relative="1" as="geometry">
            <mxPoint x="-663.5229314790217" y="265" as="sourcePoint" />
            <mxPoint x="-303" y="480" as="targetPoint" />
          </mxGeometry>
        </mxCell>
        <mxCell id="S6yvC7qdEsfKQvKiLP5z-6" value="" style="endArrow=none;dashed=1;html=1;dashPattern=1 3;strokeWidth=2;rounded=0;entryX=0.5;entryY=1;entryDx=0;entryDy=0;startArrow=none;" parent="1" source="QYz8oIN1GEiqAUlNkPk4-4" target="S6yvC7qdEsfKQvKiLP5z-3" edge="1">
          <mxGeometry width="50" height="50" relative="1" as="geometry">
            <mxPoint x="-189.5" y="640" as="sourcePoint" />
            <mxPoint x="-499.51" y="282.01" as="targetPoint" />
          </mxGeometry>
        </mxCell>
        <mxCell id="S6yvC7qdEsfKQvKiLP5z-9" value="" style="endArrow=none;html=1;rounded=0;" parent="1" edge="1">
          <mxGeometry width="50" height="50" relative="1" as="geometry">
            <mxPoint x="-697" y="180" as="sourcePoint" />
            <mxPoint x="-287" y="180" as="targetPoint" />
          </mxGeometry>
        </mxCell>
        <mxCell id="S6yvC7qdEsfKQvKiLP5z-10" value="" style="endArrow=none;html=1;rounded=0;" parent="1" edge="1">
          <mxGeometry width="50" height="50" relative="1" as="geometry">
            <mxPoint x="-220" y="180" as="sourcePoint" />
            <mxPoint y="180" as="targetPoint" />
          </mxGeometry>
        </mxCell>
        <mxCell id="S6yvC7qdEsfKQvKiLP5z-11" value="Client" style="text;strokeColor=none;align=center;fillColor=none;html=1;verticalAlign=middle;whiteSpace=wrap;rounded=0;" parent="1" vertex="1">
          <mxGeometry x="-697" y="130" width="60" height="30" as="geometry" />
        </mxCell>
        <mxCell id="S6yvC7qdEsfKQvKiLP5z-12" value="Server" style="text;strokeColor=none;align=center;fillColor=none;html=1;verticalAlign=middle;whiteSpace=wrap;rounded=0;" parent="1" vertex="1">
          <mxGeometry x="-239.5" y="130" width="60" height="30" as="geometry" />
        </mxCell>
        <mxCell id="S6yvC7qdEsfKQvKiLP5z-14" value="" style="endArrow=none;dashed=1;html=1;dashPattern=1 3;strokeWidth=2;rounded=0;entryX=1;entryY=0.5;entryDx=0;entryDy=0;" parent="1" edge="1">
          <mxGeometry width="50" height="50" relative="1" as="geometry">
            <mxPoint x="-664" y="396.5" as="sourcePoint" />
            <mxPoint x="-663" y="261.5" as="targetPoint" />
          </mxGeometry>
        </mxCell>
        <mxCell id="S6yvC7qdEsfKQvKiLP5z-26" value="Join-room : livestream module" style="text;strokeColor=none;align=center;fillColor=none;html=1;verticalAlign=middle;whiteSpace=wrap;rounded=0;" parent="1" vertex="1">
          <mxGeometry x="-720" y="75" width="100" height="30" as="geometry" />
        </mxCell>
        <mxCell id="S6yvC7qdEsfKQvKiLP5z-30" value="RoomModule/&lt;br&gt;LiveStream" style="rounded=0;whiteSpace=wrap;html=1;" parent="1" vertex="1">
          <mxGeometry x="-570" y="200" width="90" height="30" as="geometry" />
        </mxCell>
        <mxCell id="S6yvC7qdEsfKQvKiLP5z-33" value="" style="rounded=0;whiteSpace=wrap;html=1;rotation=90;" parent="1" vertex="1">
          <mxGeometry x="-713.49" y="471.99" width="377.95" height="20" as="geometry" />
        </mxCell>
        <mxCell id="S6yvC7qdEsfKQvKiLP5z-35" value="" style="endArrow=classic;html=1;rounded=0;entryX=0.879;entryY=1.1;entryDx=0;entryDy=0;entryPerimeter=0;" parent="1" target="S6yvC7qdEsfKQvKiLP5z-36" edge="1">
          <mxGeometry width="50" height="50" relative="1" as="geometry">
            <mxPoint x="-663.5" y="291.5" as="sourcePoint" />
            <mxPoint x="-540" y="292" as="targetPoint" />
          </mxGeometry>
        </mxCell>
        <mxCell id="S6yvC7qdEsfKQvKiLP5z-36" value="1. room.emit(&#39;join-room&#39;)" style="text;strokeColor=none;align=center;fillColor=none;html=1;verticalAlign=middle;whiteSpace=wrap;rounded=0;" parent="1" vertex="1">
          <mxGeometry x="-660" y="260" width="146.5" height="30" as="geometry" />
        </mxCell>
        <mxCell id="QYz8oIN1GEiqAUlNkPk4-2" value="" style="endArrow=classic;html=1;rounded=0;exitX=0;exitY=0.25;exitDx=0;exitDy=0;entryX=0;entryY=1;entryDx=0;entryDy=0;" parent="1" source="S6yvC7qdEsfKQvKiLP5z-33" edge="1" target="QYz8oIN1GEiqAUlNkPk4-11">
          <mxGeometry width="50" height="50" relative="1" as="geometry">
            <mxPoint x="-190" y="380" as="sourcePoint" />
            <mxPoint x="-340" y="290" as="targetPoint" />
          </mxGeometry>
        </mxCell>
        <mxCell id="QYz8oIN1GEiqAUlNkPk4-3" value="2.getRtpCapabilities()" style="text;strokeColor=none;align=center;fillColor=none;html=1;verticalAlign=middle;whiteSpace=wrap;rounded=0;" parent="1" vertex="1">
          <mxGeometry x="-513.5" y="260" width="146.5" height="30" as="geometry" />
        </mxCell>
        <mxCell id="QYz8oIN1GEiqAUlNkPk4-5" value="" style="endArrow=classic;html=1;rounded=0;entryX=1;entryY=0;entryDx=0;entryDy=0;exitX=1;exitY=1;exitDx=0;exitDy=0;" parent="1" edge="1" target="QYz8oIN1GEiqAUlNkPk4-11" source="QYz8oIN1GEiqAUlNkPk4-4">
          <mxGeometry width="50" height="50" relative="1" as="geometry">
            <mxPoint x="-163" y="350" as="sourcePoint" />
            <mxPoint x="-340" y="350" as="targetPoint" />
          </mxGeometry>
        </mxCell>
        <mxCell id="QYz8oIN1GEiqAUlNkPk4-6" value="4.&lt;br&gt;. callback({rtpCapabilities})" style="text;strokeColor=none;align=center;fillColor=none;html=1;verticalAlign=middle;whiteSpace=wrap;rounded=0;" parent="1" vertex="1">
          <mxGeometry x="-268" y="310" width="146.5" height="30" as="geometry" />
        </mxCell>
        <mxCell id="QYz8oIN1GEiqAUlNkPk4-8" value="RoomModule/&lt;br&gt;MediasoupInterface" style="rounded=0;whiteSpace=wrap;html=1;" parent="1" vertex="1">
          <mxGeometry x="-400" y="200" width="120" height="30" as="geometry" />
        </mxCell>
        <mxCell id="QYz8oIN1GEiqAUlNkPk4-10" value="" style="endArrow=none;dashed=1;html=1;dashPattern=1 3;strokeWidth=2;rounded=0;entryX=0.5;entryY=1;entryDx=0;entryDy=0;startArrow=none;" parent="1" source="QYz8oIN1GEiqAUlNkPk4-11" target="QYz8oIN1GEiqAUlNkPk4-8" edge="1">
          <mxGeometry width="50" height="50" relative="1" as="geometry">
            <mxPoint x="-390" y="680" as="sourcePoint" />
            <mxPoint x="-240" y="270" as="targetPoint" />
          </mxGeometry>
        </mxCell>
        <mxCell id="QYz8oIN1GEiqAUlNkPk4-11" value="" style="rounded=0;whiteSpace=wrap;html=1;rotation=90;" parent="1" vertex="1">
          <mxGeometry x="-367" y="310" width="54" height="20" as="geometry" />
        </mxCell>
        <mxCell id="QYz8oIN1GEiqAUlNkPk4-13" value="" style="endArrow=none;dashed=1;html=1;dashPattern=1 3;strokeWidth=2;rounded=0;startArrow=none;" parent="1" edge="1" source="VE9qQbwJ7asa3l0-s3IV-2">
          <mxGeometry width="50" height="50" relative="1" as="geometry">
            <mxPoint x="-340" y="680" as="sourcePoint" />
            <mxPoint x="-340" y="340" as="targetPoint" />
          </mxGeometry>
        </mxCell>
        <mxCell id="QYz8oIN1GEiqAUlNkPk4-4" value="" style="rounded=0;whiteSpace=wrap;html=1;rotation=90;" parent="1" vertex="1">
          <mxGeometry x="-70.25" y="310" width="54" height="20" as="geometry" />
        </mxCell>
        <mxCell id="QYz8oIN1GEiqAUlNkPk4-14" value="" style="endArrow=none;dashed=1;html=1;dashPattern=1 3;strokeWidth=2;rounded=0;entryX=1;entryY=0.5;entryDx=0;entryDy=0;exitX=0;exitY=0.5;exitDx=0;exitDy=0;startArrow=none;" parent="1" source="VE9qQbwJ7asa3l0-s3IV-12" target="QYz8oIN1GEiqAUlNkPk4-4" edge="1">
          <mxGeometry width="50" height="50" relative="1" as="geometry">
            <mxPoint x="-69.75" y="640" as="sourcePoint" />
            <mxPoint x="-69.75" y="230" as="targetPoint" />
          </mxGeometry>
        </mxCell>
        <mxCell id="QYz8oIN1GEiqAUlNkPk4-15" value="" style="endArrow=classic;html=1;rounded=0;exitX=0;exitY=0.25;exitDx=0;exitDy=0;entryX=0;entryY=1;entryDx=0;entryDy=0;" parent="1" source="QYz8oIN1GEiqAUlNkPk4-11" target="QYz8oIN1GEiqAUlNkPk4-4" edge="1">
          <mxGeometry width="50" height="50" relative="1" as="geometry">
            <mxPoint x="-30" y="330" as="sourcePoint" />
            <mxPoint x="20" y="280" as="targetPoint" />
          </mxGeometry>
        </mxCell>
        <mxCell id="QYz8oIN1GEiqAUlNkPk4-16" value="3.&lt;br&gt;livestreamSocket.emit&lt;br&gt;(&quot;getRtpCapabilities:&quot;,{userId})" style="text;strokeColor=none;align=center;fillColor=none;html=1;verticalAlign=middle;whiteSpace=wrap;rounded=0;" parent="1" vertex="1">
          <mxGeometry x="-301.25" y="250" width="213" height="30" as="geometry" />
        </mxCell>
        <mxCell id="QYz8oIN1GEiqAUlNkPk4-17" value="" style="endArrow=classic;html=1;rounded=0;" parent="1" edge="1">
          <mxGeometry width="50" height="50" relative="1" as="geometry">
            <mxPoint x="-350" y="346" as="sourcePoint" />
            <mxPoint x="-510" y="346" as="targetPoint" />
          </mxGeometry>
        </mxCell>
        <mxCell id="QYz8oIN1GEiqAUlNkPk4-18" value="5.&lt;br&gt;. callback({rtpCapabilities})" style="text;strokeColor=none;align=center;fillColor=none;html=1;verticalAlign=middle;whiteSpace=wrap;rounded=0;" parent="1" vertex="1">
          <mxGeometry x="-500" y="310" width="146.5" height="30" as="geometry" />
        </mxCell>
        <mxCell id="VE9qQbwJ7asa3l0-s3IV-2" value="" style="rounded=0;whiteSpace=wrap;html=1;rotation=90;" vertex="1" parent="1">
          <mxGeometry x="-367" y="396" width="54" height="20" as="geometry" />
        </mxCell>
        <mxCell id="VE9qQbwJ7asa3l0-s3IV-4" value="" style="endArrow=classic;html=1;rounded=0;startArrow=none;" edge="1" parent="1">
          <mxGeometry width="50" height="50" relative="1" as="geometry">
            <mxPoint x="-510" y="380" as="sourcePoint" />
            <mxPoint x="-350" y="380" as="targetPoint" />
          </mxGeometry>
        </mxCell>
        <mxCell id="VE9qQbwJ7asa3l0-s3IV-6" value="" style="endArrow=classic;html=1;rounded=0;exitX=1;exitY=0.5;exitDx=0;exitDy=0;" edge="1" parent="1" source="VE9qQbwJ7asa3l0-s3IV-2">
          <mxGeometry width="50" height="50" relative="1" as="geometry">
            <mxPoint x="-300" y="390" as="sourcePoint" />
            <mxPoint x="-510" y="433" as="targetPoint" />
          </mxGeometry>
        </mxCell>
        <mxCell id="VE9qQbwJ7asa3l0-s3IV-7" value="7.&lt;br&gt;resolve/ reject" style="text;strokeColor=none;align=center;fillColor=none;html=1;verticalAlign=middle;whiteSpace=wrap;rounded=0;rotation=0;" vertex="1" parent="1">
          <mxGeometry x="-500" y="396" width="146.5" height="30" as="geometry" />
        </mxCell>
        <mxCell id="VE9qQbwJ7asa3l0-s3IV-9" value="" style="rounded=0;whiteSpace=wrap;html=1;rotation=90;" vertex="1" parent="1">
          <mxGeometry x="-436.16" y="566.17" width="192.32" height="20" as="geometry" />
        </mxCell>
        <mxCell id="VE9qQbwJ7asa3l0-s3IV-10" value="" style="endArrow=classic;html=1;rounded=0;entryX=0;entryY=0.5;entryDx=0;entryDy=0;" edge="1" parent="1" target="VE9qQbwJ7asa3l0-s3IV-9">
          <mxGeometry width="50" height="50" relative="1" as="geometry">
            <mxPoint x="-510" y="480" as="sourcePoint" />
            <mxPoint x="-250" y="357" as="targetPoint" />
          </mxGeometry>
        </mxCell>
        <mxCell id="VE9qQbwJ7asa3l0-s3IV-11" value="8.&lt;br&gt;consumeAll()" style="text;strokeColor=none;align=center;fillColor=none;html=1;verticalAlign=middle;whiteSpace=wrap;rounded=0;" vertex="1" parent="1">
          <mxGeometry x="-505.75" y="446" width="146.5" height="30" as="geometry" />
        </mxCell>
        <mxCell id="VE9qQbwJ7asa3l0-s3IV-12" value="" style="rounded=0;whiteSpace=wrap;html=1;rotation=90;" vertex="1" parent="1">
          <mxGeometry x="-60.32" y="487.07" width="34.13" height="20" as="geometry" />
        </mxCell>
        <mxCell id="VE9qQbwJ7asa3l0-s3IV-15" value="" style="endArrow=classic;html=1;rounded=0;exitX=0;exitY=0;exitDx=0;exitDy=0;entryX=0;entryY=1;entryDx=0;entryDy=0;" edge="1" parent="1" source="VE9qQbwJ7asa3l0-s3IV-9" target="VE9qQbwJ7asa3l0-s3IV-12">
          <mxGeometry width="50" height="50" relative="1" as="geometry">
            <mxPoint x="-300" y="390" as="sourcePoint" />
            <mxPoint x="-250" y="340" as="targetPoint" />
          </mxGeometry>
        </mxCell>
        <mxCell id="VE9qQbwJ7asa3l0-s3IV-5" value="6.&lt;br&gt;createDevice()" style="text;strokeColor=none;align=center;fillColor=none;html=1;verticalAlign=middle;whiteSpace=wrap;rounded=0;" vertex="1" parent="1">
          <mxGeometry x="-505.75" y="350" width="145.75" height="20" as="geometry" />
        </mxCell>
        <mxCell id="VE9qQbwJ7asa3l0-s3IV-20" value="9.&lt;br&gt;livestreamSocket.emit(&quot;consume-all&quot;)" style="text;strokeColor=none;align=center;fillColor=none;html=1;verticalAlign=middle;whiteSpace=wrap;rounded=0;" vertex="1" parent="1">
          <mxGeometry x="-311.12" y="440" width="232.75" height="36" as="geometry" />
        </mxCell>
        <mxCell id="VE9qQbwJ7asa3l0-s3IV-21" value="" style="endArrow=classic;html=1;rounded=0;exitX=1;exitY=1;exitDx=0;exitDy=0;" edge="1" parent="1" source="VE9qQbwJ7asa3l0-s3IV-12">
          <mxGeometry width="50" height="50" relative="1" as="geometry">
            <mxPoint x="-400" y="430" as="sourcePoint" />
            <mxPoint x="-320" y="514" as="targetPoint" />
          </mxGeometry>
        </mxCell>
        <mxCell id="VE9qQbwJ7asa3l0-s3IV-22" value="10.&lt;br&gt;callback({producers})" style="text;strokeColor=none;align=center;fillColor=none;html=1;verticalAlign=middle;whiteSpace=wrap;rounded=0;" vertex="1" parent="1">
          <mxGeometry x="-311.12" y="479.07" width="232.75" height="36" as="geometry" />
        </mxCell>
        <mxCell id="VE9qQbwJ7asa3l0-s3IV-24" value="" style="endArrow=classic;html=1;rounded=0;entryX=0;entryY=1;entryDx=0;entryDy=0;" edge="1" parent="1" target="VE9qQbwJ7asa3l0-s3IV-23">
          <mxGeometry width="50" height="50" relative="1" as="geometry">
            <mxPoint x="-330" y="590" as="sourcePoint" />
            <mxPoint x="-350" y="429.07" as="targetPoint" />
          </mxGeometry>
        </mxCell>
        <mxCell id="VE9qQbwJ7asa3l0-s3IV-26" value="" style="swimlane;startSize=0;" vertex="1" parent="1">
          <mxGeometry x="-420" y="530" width="420" height="170" as="geometry" />
        </mxCell>
        <mxCell id="VE9qQbwJ7asa3l0-s3IV-27" value="Loop All Producers" style="text;strokeColor=none;align=center;fillColor=none;html=1;verticalAlign=middle;whiteSpace=wrap;rounded=0;" vertex="1" parent="VE9qQbwJ7asa3l0-s3IV-26">
          <mxGeometry x="6.5" y="6" width="60" height="30" as="geometry" />
        </mxCell>
        <mxCell id="VE9qQbwJ7asa3l0-s3IV-23" value="" style="rounded=0;whiteSpace=wrap;html=1;rotation=90;" vertex="1" parent="VE9qQbwJ7asa3l0-s3IV-26">
          <mxGeometry x="335.77" y="90" width="81.97" height="20" as="geometry" />
        </mxCell>
        <mxCell id="VE9qQbwJ7asa3l0-s3IV-29" value="12.&lt;br&gt;callback({&lt;br&gt;consumerId,&lt;br&gt;producerId,&lt;br&gt;consumerKind,&lt;br&gt;rtpParameters})" style="text;strokeColor=none;align=center;fillColor=none;html=1;verticalAlign=middle;whiteSpace=wrap;rounded=0;" vertex="1" parent="VE9qQbwJ7asa3l0-s3IV-26">
          <mxGeometry x="108.88" y="82" width="232.75" height="36" as="geometry" />
        </mxCell>
        <mxCell id="VE9qQbwJ7asa3l0-s3IV-25" value="11.&lt;br&gt;livestreamSocket.emit(&quot;consume&quot;, {rtpCapability, userId, transportId, producerId}" style="text;strokeColor=none;align=center;fillColor=none;html=1;verticalAlign=middle;whiteSpace=wrap;rounded=0;" vertex="1" parent="1">
          <mxGeometry x="-311.12" y="542" width="232.75" height="36" as="geometry" />
        </mxCell>
        <mxCell id="VE9qQbwJ7asa3l0-s3IV-28" value="" style="endArrow=classic;html=1;rounded=0;exitX=1;exitY=1;exitDx=0;exitDy=0;entryX=1;entryY=0;entryDx=0;entryDy=0;" edge="1" parent="1" source="VE9qQbwJ7asa3l0-s3IV-23" target="VE9qQbwJ7asa3l0-s3IV-9">
          <mxGeometry width="50" height="50" relative="1" as="geometry">
            <mxPoint x="-370" y="602" as="sourcePoint" />
            <mxPoint x="-330" y="626" as="targetPoint" />
          </mxGeometry>
        </mxCell>
        <mxCell id="VE9qQbwJ7asa3l0-s3IV-30" value="" style="endArrow=classic;html=1;rounded=0;exitX=1;exitY=1;exitDx=0;exitDy=0;entryX=1;entryY=0;entryDx=0;entryDy=0;" edge="1" parent="1" source="VE9qQbwJ7asa3l0-s3IV-9" target="S6yvC7qdEsfKQvKiLP5z-33">
          <mxGeometry width="50" height="50" relative="1" as="geometry">
            <mxPoint x="-370" y="580" as="sourcePoint" />
            <mxPoint x="-320" y="530" as="targetPoint" />
          </mxGeometry>
        </mxCell>
        <mxCell id="VE9qQbwJ7asa3l0-s3IV-31" value="13.&lt;br&gt;resolve/ reject" style="text;strokeColor=none;align=center;fillColor=none;html=1;verticalAlign=middle;whiteSpace=wrap;rounded=0;rotation=0;" vertex="1" parent="1">
          <mxGeometry x="-513.5" y="640" width="146.5" height="30" as="geometry" />
        </mxCell>
        <mxCell id="VE9qQbwJ7asa3l0-s3IV-34" value="" style="endArrow=none;dashed=1;html=1;dashPattern=1 3;strokeWidth=2;rounded=0;entryX=1;entryY=0.5;entryDx=0;entryDy=0;exitX=0;exitY=0.5;exitDx=0;exitDy=0;" edge="1" parent="1" source="VE9qQbwJ7asa3l0-s3IV-9" target="VE9qQbwJ7asa3l0-s3IV-2">
          <mxGeometry width="50" height="50" relative="1" as="geometry">
            <mxPoint x="-510" y="380" as="sourcePoint" />
            <mxPoint x="-460" y="330" as="targetPoint" />
          </mxGeometry>
        </mxCell>
        <mxCell id="VE9qQbwJ7asa3l0-s3IV-35" value="" style="rounded=0;whiteSpace=wrap;html=1;rotation=90;" vertex="1" parent="1">
          <mxGeometry x="-691" y="255" width="54" height="20" as="geometry" />
        </mxCell>
        <mxCell id="VE9qQbwJ7asa3l0-s3IV-36" value="" style="endArrow=none;dashed=1;html=1;dashPattern=1 3;strokeWidth=2;rounded=0;entryX=1;entryY=0.5;entryDx=0;entryDy=0;exitX=0;exitY=0.5;exitDx=0;exitDy=0;" edge="1" parent="1" source="VE9qQbwJ7asa3l0-s3IV-23" target="VE9qQbwJ7asa3l0-s3IV-12">
          <mxGeometry width="50" height="50" relative="1" as="geometry">
            <mxPoint x="-43" y="580" as="sourcePoint" />
            <mxPoint x="-460" y="330" as="targetPoint" />
          </mxGeometry>
        </mxCell>
      </root>
    </mxGraphModel>
  </diagram>
</mxfile>
